<?xml version="1.0" encoding="UTF-8" standalone="no"?>
<!-- Created with Inkscape (http://www.inkscape.org/) -->

<svg
   xmlns:dc="http://purl.org/dc/elements/1.1/"
   xmlns:cc="http://creativecommons.org/ns#"
   xmlns:rdf="http://www.w3.org/1999/02/22-rdf-syntax-ns#"
   xmlns:svg="http://www.w3.org/2000/svg"
   xmlns="http://www.w3.org/2000/svg"
   xmlns:xlink="http://www.w3.org/1999/xlink"
   xmlns:sodipodi="http://sodipodi.sourceforge.net/DTD/sodipodi-0.dtd"
   xmlns:inkscape="http://www.inkscape.org/namespaces/inkscape"
   width="2000"
   height="1000"
   viewBox="0 0 2000 1000"
   id="svg7977"
   version="1.1"
   inkscape:version="0.91 r13725"
   sodipodi:docname="garlicoin_logo.svg">
  <defs
     id="defs7979">
    <linearGradient
       inkscape:collect="always"
       xlink:href="#linearGradient7939"
       id="linearGradient8302"
       gradientUnits="userSpaceOnUse"
       gradientTransform="matrix(0.32425767,0,0,0.32425767,-2477.6607,-1684.5637)"
       x1="5497.1431"
       y1="6275.2192"
       x2="4780"
       y2="6992.3623" />
    <linearGradient
       inkscape:collect="always"
       id="linearGradient7939">
      <stop
         style="stop-color:#fbcb6a;stop-opacity:1"
         offset="0"
         id="stop7941" />
      <stop
         style="stop-color:#ffe66d;stop-opacity:1"
         offset="1"
         id="stop7943" />
    </linearGradient>
  </defs>
  <sodipodi:namedview
     id="base"
     pagecolor="#ffffff"
     bordercolor="#666666"
     borderopacity="1.0"
     inkscape:pageopacity="0.0"
     inkscape:pageshadow="2"
     inkscape:zoom="0.12374369"
     inkscape:cx="-402.86936"
     inkscape:cy="967.41304"
     inkscape:document-units="px"
     inkscape:current-layer="layer1"
     showgrid="false"
     units="px"
     fit-margin-top="0"
     fit-margin-left="0"
     fit-margin-right="0"
     fit-margin-bottom="0"
     inkscape:window-width="1600"
     inkscape:window-height="837"
     inkscape:window-x="-8"
     inkscape:window-y="-8"
     inkscape:window-maximized="1" />
  <metadata
     id="metadata7982">
    <rdf:RDF>
      <cc:Work
         rdf:about="">
        <dc:format>image/svg+xml</dc:format>
        <dc:type
           rdf:resource="http://purl.org/dc/dcmitype/StillImage" />
        <dc:title></dc:title>
      </cc:Work>
    </rdf:RDF>
  </metadata>
  <g
     inkscape:label="Layer 1"
     inkscape:groupmode="layer"
     id="layer1"
     transform="translate(2004.2985,-2333.933)">
    <g
       id="g8624">
      <rect
         style="color:#000000;clip-rule:nonzero;display:inline;overflow:visible;visibility:visible;opacity:1;isolation:auto;mix-blend-mode:normal;color-interpolation:sRGB;color-interpolation-filters:linearRGB;solid-color:#000000;solid-opacity:1;fill:#333333;fill-opacity:1;fill-rule:nonzero;stroke:none;stroke-width:35;stroke-linecap:round;stroke-linejoin:round;stroke-miterlimit:4;stroke-dasharray:none;stroke-dashoffset:0;stroke-opacity:1;color-rendering:auto;image-rendering:auto;shape-rendering:auto;text-rendering:auto;enable-background:accumulate"
         id="rect8290"
         width="999.99988"
         height="999.99988"
         x="-2004.2985"
         y="2333.9331" />
      <g
         inkscape:export-ydpi="90"
         inkscape:export-xdpi="90"
         transform="matrix(1.113235,0,0,1.113235,-906.33235,2311.2639)"
         id="g8603">
        <path
           inkscape:connector-curvature="0"
           style="color:#000000;clip-rule:nonzero;display:inline;overflow:visible;visibility:visible;opacity:1;isolation:auto;mix-blend-mode:normal;color-interpolation:sRGB;color-interpolation-filters:linearRGB;solid-color:#000000;solid-opacity:1;fill:url(#linearGradient8302);fill-opacity:1;fill-rule:nonzero;stroke:none;stroke-width:35;stroke-linecap:square;stroke-linejoin:round;stroke-miterlimit:4;stroke-dasharray:none;stroke-dashoffset:0;stroke-opacity:1;color-rendering:auto;image-rendering:auto;shape-rendering:auto;text-rendering:auto;enable-background:accumulate"
           d="m -815.83982,357.21943 a 112.28531,112.28531 0 0 0 -112.28569,112.28568 112.28531,112.28531 0 0 0 112.28569,112.28506 112.28531,112.28531 0 0 0 112.28506,-112.28506 112.28531,112.28531 0 0 0 -112.28506,-112.28568 z m 0,14.81538 c 23.02903,0 44.20955,8.02567 60.9045,21.42137 -0.14793,0.0467 -0.29542,0.0943 -0.4417,0.14638 -4.91929,1.75306 -9.31658,3.29743 -13.36155,4.63877 -13.49338,-8.92517 -29.67837,-14.12213 -47.10117,-14.12213 -47.22873,0 -85.38528,38.15656 -85.38528,85.38529 0,47.22869 38.15655,85.38533 85.38528,85.38533 47.22869,0 85.38534,-38.15664 85.38534,-85.38533 0,-17.43806 -5.20614,-33.63644 -14.14587,-47.13696 1.35443,-4.01942 2.90514,-8.39232 4.66313,-13.32513 0.0526,-0.14802 0.0966,-0.29648 0.14296,-0.44508 13.39717,16.69535 21.42403,37.87751 21.42403,60.90779 0,53.75958 -43.71009,97.46968 -97.46959,97.46968 -53.75967,0 -97.46967,-43.7101 -97.46967,-97.46968 0,-53.75958 43.71,-97.46959 97.46967,-97.46959 l 0,0 z m 64.5959,26.90989 c 1.63304,0.0213 3.18783,0.70269 4.3104,1.88892 1.56273,1.65096 2.06676,4.03934 1.30413,6.18097 -10.02819,28.13945 -14.16125,41.02443 -8.61885,65.25806 6.32717,27.66457 -11.60769,56.56532 -39.53498,65.30531 -18.95923,5.93332 -38.22473,0.92976 -50.57473,-11.75997 -9.69672,-4.2546 -22.70568,-18.32031 -27.79467,-27.79458 -12.68981,-12.35004 -17.69329,-31.61546 -11.75992,-50.57482 8.73999,-27.9272 37.64136,-45.86214 65.30588,-39.53502 24.23363,5.5424 37.11804,1.40938 65.2574,-8.61885 0.67542,-0.24068 1.38832,-0.35934 2.10534,-0.35002 z m -11.67977,17.64431 c -7.17601,2.89459 -16.58556,6.79345 -26.63744,11.27644 -20.87832,9.31156 -44.43036,21.65491 -51.9073,29.13189 -8.46719,8.46715 -13.6299,18.4882 -15.22608,27.36911 -1.20663,6.71355 -0.46605,12.53944 2.0338,17.05087 1.07432,1.17274 2.20794,2.365 3.37576,3.53291 1.16818,1.16818 2.36053,2.30185 3.53363,3.37652 4.51116,2.49923 10.33656,3.23963 17.04954,2.03309 8.88095,-1.59613 18.90324,-6.75898 27.37048,-15.22609 7.47694,-7.47693 19.81957,-31.02831 29.13118,-51.90667 4.48299,-10.05179 8.38199,-19.46196 11.27643,-26.63807 z m -67.161,2.1761 c -18.26287,0.21677 -36.36096,13.32855 -42.29579,32.29256 -3.72618,11.90652 -1.97294,23.39334 3.62389,32.17116 0.0525,-0.33347 0.10797,-0.66677 0.16789,-1.00011 2.10579,-11.71645 8.50295,-23.70405 18.57563,-33.77674 9.08021,-9.0802 26.34696,-18.17114 43.99585,-26.37986 -4.81958,-0.36466 -9.85445,-1.13722 -15.28415,-2.37907 -2.61296,-0.59753 -5.26274,-0.89956 -7.91349,-0.92794 -0.28987,-0.007 -0.57996,-0.007 -0.86983,0 z m 61.67852,40.91682 c -8.20877,17.64907 -17.30019,34.91684 -26.38049,43.99718 -10.07263,10.07268 -22.06095,16.46837 -33.77749,18.57425 -0.33325,0.0597 -0.66659,0.11524 -1.00002,0.16789 8.778,5.59754 20.26478,7.351 32.17183,3.6246 22.01721,-6.89031 36.14547,-30.17551 31.36462,-51.07911 -1.24194,-5.43005 -2.01379,-10.46497 -2.37845,-15.28481 z"
           id="path8296"
           inkscape:export-xdpi="90"
           inkscape:export-ydpi="90" />
        <text
           xml:space="preserve"
           style="font-style:normal;font-weight:normal;font-size:121.21492767px;line-height:125%;font-family:sans-serif;letter-spacing:0px;word-spacing:0px;fill:#f9f9f9;fill-opacity:1;stroke:none;stroke-width:1px;stroke-linecap:butt;stroke-linejoin:miter;stroke-opacity:1"
           x="-679.4118"
           y="504.35413"
           id="text8298"
           sodipodi:linespacing="125%"><tspan
             sodipodi:role="line"
             id="tspan8300"
             x="-679.4118"
             y="504.35413"
             style="font-style:italic;font-variant:normal;font-weight:bold;font-stretch:normal;font-family:Metropolis;-inkscape-font-specification:'Metropolis Bold Italic';letter-spacing:1.51078439px;fill:#f9f9f9;fill-opacity:1">garlicoin</tspan></text>
      </g>
      <rect
         y="2333.9331"
         x="-1004.2986"
         height="999.99988"
         width="999.99988"
         id="rect8608"
         style="color:#000000;clip-rule:nonzero;display:inline;overflow:visible;visibility:visible;opacity:1;isolation:auto;mix-blend-mode:normal;color-interpolation:sRGB;color-interpolation-filters:linearRGB;solid-color:#000000;solid-opacity:1;fill:#f9f9f9;fill-opacity:1;fill-rule:nonzero;stroke:none;stroke-width:35;stroke-linecap:round;stroke-linejoin:round;stroke-miterlimit:4;stroke-dasharray:none;stroke-dashoffset:0;stroke-opacity:1;color-rendering:auto;image-rendering:auto;shape-rendering:auto;text-rendering:auto;enable-background:accumulate" />
      <path
         id="path8612"
         transform="translate(-2004.2985,2333.933)"
         d="M 1189.7441 375 A 124.99994 124.99994 0 0 0 1064.7441 500 A 124.99994 124.99994 0 0 0 1189.7441 625 A 124.99994 124.99994 0 0 0 1314.7441 500 A 124.99994 124.99994 0 0 0 1189.7441 375 z M 1189.7441 391.49219 C 1215.3809 391.49219 1238.9595 400.42724 1257.5449 415.33984 C 1257.3802 415.39184 1257.2175 415.44601 1257.0547 415.50391 C 1251.5784 417.45551 1246.6827 419.17477 1242.1797 420.66797 C 1227.1584 410.73217 1209.1398 404.94531 1189.7441 404.94531 C 1137.1675 404.94531 1094.6914 447.4234 1094.6914 500 C 1094.6914 552.5767 1137.1675 595.05273 1189.7441 595.05273 C 1242.3208 595.05273 1284.7988 552.5767 1284.7988 500 C 1284.7988 480.5874 1279.0028 462.55469 1269.0508 447.52539 C 1270.5586 443.05089 1272.2851 438.18281 1274.2422 432.69141 C 1274.3008 432.52661 1274.3488 432.36081 1274.4004 432.19531 C 1289.3146 450.78121 1298.252 474.3619 1298.252 500 C 1298.252 559.8471 1249.5911 608.50781 1189.7441 608.50781 C 1129.897 608.50781 1081.2383 559.8471 1081.2383 500 C 1081.2383 440.153 1129.897 391.49414 1189.7441 391.49414 L 1189.7441 391.49219 z M 1261.6543 421.44922 C 1263.4722 421.47322 1265.2034 422.23223 1266.4531 423.55273 C 1268.1928 425.39063 1268.7533 428.04939 1267.9043 430.43359 C 1256.7406 461.75939 1252.1406 476.10433 1258.3105 503.08203 C 1265.3542 533.87923 1245.3885 566.05155 1214.2988 575.78125 C 1193.1927 582.38645 1171.7465 576.81605 1157.998 562.68945 C 1147.2033 557.95305 1132.7199 542.29515 1127.0547 531.74805 C 1112.9279 517.99955 1107.3577 496.55357 1113.9629 475.44727 C 1123.6926 444.35777 1155.8669 424.39195 1186.6641 431.43555 C 1213.6418 437.60555 1227.9848 433.00354 1259.3105 421.83984 C 1260.0624 421.57184 1260.8561 421.43882 1261.6543 421.44922 z M 1650.3086 437.99414 C 1644.2363 437.99414 1638.5684 443.2574 1638.5684 449.59961 C 1638.5684 454.99724 1642.6153 459.45117 1648.5527 459.45117 C 1654.3552 459.45117 1659.8887 453.91803 1659.8887 447.8457 C 1659.8887 442.44807 1655.9761 437.99414 1650.3086 437.99414 z M 1850.3848 437.99414 C 1844.3124 437.99414 1838.6445 443.2574 1838.6445 449.59961 C 1838.6445 454.99724 1842.6935 459.45117 1848.6309 459.45117 C 1854.4333 459.45117 1859.9648 453.91803 1859.9648 447.8457 C 1859.9648 442.44807 1856.0523 437.99414 1850.3848 437.99414 z M 1248.6523 441.0918 C 1240.6638 444.3141 1230.1881 448.65588 1218.998 453.64648 C 1195.7556 464.01238 1169.5384 477.75257 1161.2148 486.07617 C 1151.7889 495.50217 1146.0406 506.65832 1144.2637 516.54492 C 1142.9204 524.01862 1143.7444 530.50309 1146.5273 535.52539 C 1147.7233 536.83089 1148.9851 538.15878 1150.2852 539.45898 C 1151.5856 540.75938 1152.9128 542.02245 1154.2188 543.21875 C 1159.2407 546.00105 1165.7261 546.82367 1173.1992 545.48047 C 1183.0858 543.70367 1194.2439 537.95715 1203.6699 528.53125 C 1211.9935 520.20765 1225.7336 493.98859 1236.0996 470.74609 C 1241.0902 459.55609 1245.4302 449.0805 1248.6523 441.0918 z M 1173.8867 443.51562 C 1153.5559 443.75693 1133.4076 458.35344 1126.8008 479.46484 C 1122.6527 492.71954 1124.6053 505.50564 1130.8359 515.27734 C 1130.8943 514.90614 1130.9567 514.53516 1131.0234 514.16406 C 1133.3677 501.12086 1140.4879 487.7758 1151.7012 476.5625 C 1161.8096 466.4541 1181.0323 456.33547 1200.6797 447.19727 C 1195.3144 446.79127 1189.7086 445.93133 1183.6641 444.54883 C 1180.7552 443.88363 1177.8064 443.54722 1174.8555 443.51562 C 1174.5328 443.50562 1174.2094 443.50562 1173.8867 443.51562 z M 1602.2832 444.47266 L 1582.7168 538.79492 L 1602.418 538.79492 L 1621.9844 444.47266 L 1602.2832 444.47266 z M 1382.7773 467.41211 C 1362.2664 467.41211 1345.9395 486.70811 1345.9395 506.94922 C 1345.9395 522.87222 1356.1945 533.66797 1371.8477 533.66797 C 1380.4839 533.66797 1389.1202 530.29356 1395.8672 523.81641 L 1394.6523 529.75391 C 1392.6282 538.79493 1382.3726 545.4082 1369.1484 545.4082 C 1361.7267 545.4082 1354.1709 543.38433 1350.3926 539.20117 L 1341.6211 552.28906 C 1347.6934 557.68669 1358.4892 562.00586 1371.3086 562.00586 C 1392.3593 562.00586 1409.9012 550.53553 1413.8145 532.18359 L 1426.9043 469.03125 L 1407.2031 469.03125 L 1405.043 479.69141 C 1401.8044 472.67449 1393.5726 467.41211 1382.7773 467.41211 z M 1474.2734 467.41211 C 1451.8733 467.41211 1434.6016 488.59844 1434.6016 512.07812 C 1434.6016 528.40595 1445.5306 540.41406 1461.0488 540.41406 C 1470.4947 540.41406 1478.9953 536.366 1485.6074 529.75391 L 1483.7188 538.79492 L 1503.4199 538.79492 L 1517.9941 469.03125 L 1498.293 469.03125 L 1495.8633 480.36523 C 1491.6801 472.40373 1483.8542 467.41211 1474.2734 467.41211 z M 1580.1445 467.41211 C 1569.6192 467.41211 1560.3087 472.53975 1554.2363 481.04102 L 1556.6641 469.03125 L 1536.9629 469.03125 L 1522.3887 538.79492 L 1542.0918 538.79492 L 1549.2422 504.65625 C 1552.4808 492.51159 1563.9505 484.00977 1577.9844 484.00977 L 1580.1445 467.41211 z M 1707.6504 467.41211 C 1684.4406 467.41211 1662.5801 486.57358 1662.5801 509.64844 C 1662.5801 526.65097 1676.2091 540.41406 1694.1562 540.41406 C 1705.6262 540.41406 1715.612 536.3674 1724.1133 528.67578 L 1712.5078 516.53125 C 1708.0548 520.84935 1701.7128 523.81641 1695.7754 523.81641 C 1687.6789 523.81641 1681.3379 517.34076 1681.3379 509.10938 C 1681.3379 496.29001 1693.0769 484.00977 1706.0312 484.00977 C 1710.7542 484.00977 1716.151 486.1691 1718.7148 489.8125 L 1733.1543 479.82617 C 1727.8916 472.67431 1718.8505 467.41211 1707.6504 467.41211 z M 1781.9395 467.41211 C 1758.8646 467.41211 1737.0039 486.43864 1737.0039 509.64844 C 1737.0039 526.65097 1750.6328 540.41406 1768.7148 540.41406 C 1791.7897 540.41406 1813.7852 521.25259 1813.7852 498.17773 C 1813.7852 481.17521 1800.0215 467.41211 1781.9395 467.41211 z M 1913.2598 467.41211 C 1905.0284 467.41211 1897.0674 470.92038 1891.8047 476.58789 L 1893.4238 469.03125 L 1873.7227 469.03125 L 1859.1484 538.79492 L 1878.8496 538.79492 L 1887.3516 498.17773 L 1887.3516 498.3125 C 1888.8359 490.75582 1897.2013 484.00977 1906.1074 484.00977 C 1911.9099 484.00977 1915.5547 487.51751 1915.5547 493.58984 C 1915.5547 496.55854 1915.0149 498.71753 1906.5137 538.79492 L 1925.5391 538.79492 C 1934.1753 497.36813 1935.2559 493.86017 1935.2559 488.73242 C 1935.2559 476.18294 1926.8888 467.41211 1913.2598 467.41211 z M 1635.5996 469.03125 L 1621.0254 538.79492 L 1640.7266 538.79492 L 1655.3008 469.03125 L 1635.5996 469.03125 z M 1835.6758 469.03125 L 1821.1035 538.79492 L 1840.8047 538.79492 L 1855.377 469.03125 L 1835.6758 469.03125 z M 1388.5801 484.00977 C 1396.5416 484.00977 1401.2656 488.32809 1401.2656 495.88477 C 1401.2656 506.81496 1390.875 517.07031 1378.8652 517.07031 C 1371.1736 517.07031 1366.1797 512.88711 1366.1797 505.06055 C 1366.1797 493.99541 1376.7053 484.00977 1388.5801 484.00977 z M 1477.7812 484.00977 C 1485.8777 484.00977 1491.8164 489.67735 1491.8164 497.50391 C 1491.8164 498.98825 1491.68 500.47286 1491.4102 501.82227 L 1491.0059 503.57617 C 1488.307 514.64131 1478.7255 523.81641 1467.5254 523.81641 C 1459.4289 523.81641 1453.7617 518.01406 1453.7617 510.1875 C 1453.7617 496.15367 1464.692 484.00977 1477.7812 484.00977 z M 1780.4551 484.00977 C 1788.8214 484.00977 1795.2988 490.48737 1795.2988 498.71875 C 1795.2988 511.53812 1783.2885 523.81641 1770.1992 523.81641 C 1761.9678 523.81641 1755.4902 517.34076 1755.4902 509.10938 C 1755.4902 496.15507 1767.3658 484.00977 1780.4551 484.00977 z M 1242.5488 489.06445 C 1233.4105 508.71205 1223.2902 527.93642 1213.1816 538.04492 C 1201.9684 549.25822 1188.6233 556.3764 1175.5801 558.7207 C 1175.2091 558.7877 1174.838 558.8496 1174.4668 558.9082 C 1184.2388 565.1396 1197.0259 567.09166 1210.2812 562.94336 C 1234.7916 555.27276 1250.5195 529.35068 1245.1973 506.08008 C 1243.8147 500.03518 1242.9548 494.43005 1242.5488 489.06445 z "
         style="color:#000000;clip-rule:nonzero;display:inline;overflow:visible;visibility:visible;opacity:1;isolation:auto;mix-blend-mode:normal;color-interpolation:sRGB;color-interpolation-filters:linearRGB;solid-color:#000000;solid-opacity:1;fill:#333333;fill-opacity:1;fill-rule:nonzero;stroke:none;stroke-width:35;stroke-linecap:square;stroke-linejoin:round;stroke-miterlimit:4;stroke-dasharray:none;stroke-dashoffset:0;stroke-opacity:1;color-rendering:auto;image-rendering:auto;shape-rendering:auto;text-rendering:auto;enable-background:accumulate" />
    </g>
  </g>
</svg>
